<svg width="51" height="14" viewBox="0 0 51 14" fill="none" xmlns="http://www.w3.org/2000/svg">
<path d="M4.112 13H6.528V3.944H10.24V1.8H0.416V3.944H4.112V13ZM10.1389 8.616C10.1389 11.448 11.8829 13.192 14.4749 13.192C17.0349 13.192 18.7629 11.448 18.7629 8.616C18.7629 5.96 16.9229 4.216 14.4749 4.216C11.9949 4.216 10.1389 5.96 10.1389 8.616ZM12.5069 8.632C12.5069 7.048 13.2909 5.992 14.4749 5.992C15.6269 5.992 16.3949 7.048 16.3949 8.632C16.3949 10.328 15.6909 11.432 14.4749 11.432C13.2109 11.432 12.5069 10.328 12.5069 8.632ZM20.383 13H22.735V10.808L24.127 9.224L25.887 13H28.543L25.679 7.448L28.335 4.408H25.871L22.735 8.168V0.919999H20.383V13ZM29.2178 10.92C29.2178 12.28 30.2738 13.192 31.7778 13.192C32.9298 13.192 33.7298 12.76 34.4498 11.992C34.9298 12.808 35.6018 13.048 37.2178 13.048V11.432C36.7858 11.432 36.5138 11.224 36.5138 10.76V7.176C36.5138 5.416 35.5538 4.216 33.0898 4.216C31.9218 4.216 30.5778 4.616 29.4258 5.192L30.2578 6.92C31.3138 6.408 32.1778 6.072 32.9938 6.072C33.8098 6.072 34.1778 6.456 34.1778 7.096V7.848C30.9938 8.072 29.2178 9.048 29.2178 10.92ZM31.5538 10.648C31.5538 9.56 32.8498 9.224 34.1778 9.144V10.792C33.8098 11.208 33.2658 11.512 32.5458 11.512C31.9538 11.512 31.5538 11.16 31.5538 10.648ZM40.399 13H42.527L44.111 7.72H44.143L45.727 13H47.855L50.655 4.408H48.399L46.687 9.976H46.655L45.087 4.408H43.199L41.647 9.976H41.615L39.887 4.408H37.599L40.399 13Z" fill="#212D39"/>
</svg>
