<svg xmlns="http://www.w3.org/2000/svg" xmlns:xlink="http://www.w3.org/1999/xlink" viewBox="0 0 60 24"><defs><style>.cls-1{fill:none;}.cls-2{clip-path:url(#clip-path);}.cls-3{fill:#fff;}.cls-4{fill:#212d39;}</style><clipPath id="clip-path"><rect class="cls-1" width="60" height="24"/></clipPath></defs><title>资源 1</title><g id="图层_2" data-name="图层 2"><g id="图层_1-2" data-name="图层 1"><g class="cls-2"><rect class="cls-3" width="60" height="24"/><path class="cls-4" d="M8.11,18h2.42V8.94h3.71V6.8H4.42V8.94h3.7Zm6-4.38c0,2.83,1.74,4.58,4.34,4.58s4.29-1.74,4.29-4.58a4.16,4.16,0,0,0-4.29-4.4A4.18,4.18,0,0,0,14.14,13.62Zm2.37,0c0-1.58.78-2.64,2-2.64s1.92,1.06,1.92,2.64-.7,2.8-1.92,2.8S16.51,15.33,16.51,13.63ZM24.38,18h2.35V15.81l1.39-1.58L29.89,18h2.66l-2.86-5.55,2.66-3H29.87l-3.14,3.76V5.92H24.38Zm8.83-2.08a2.31,2.31,0,0,0,2.56,2.27A3.42,3.42,0,0,0,38.45,17c.48.82,1.15,1.06,2.77,1.06V16.43a.62.62,0,0,1-.7-.67V12.18c0-1.76-1-3-3.42-3a8.65,8.65,0,0,0-3.66,1l.83,1.73A6.56,6.56,0,0,1,37,11.07c.82,0,1.18.38,1.18,1v.75C35,13.07,33.22,14,33.22,15.92Zm2.34-.27c0-1.09,1.3-1.42,2.62-1.5v1.65a2.12,2.12,0,0,1-1.63.72A.89.89,0,0,1,35.55,15.65ZM44.4,18h2.13l1.58-5.28h0L49.73,18h2.13l2.8-8.59H52.4L50.69,15h0L49.09,9.41H47.2L45.65,15h0L43.89,9.41H41.6Z"/></g></g></g></svg>